<mxfile host="Electron" modified="2023-05-30T22:55:45.678Z" agent="Mozilla/5.0 (Windows NT 10.0; Win64; x64) AppleWebKit/537.36 (KHTML, like Gecko) draw.io/21.2.8 Chrome/112.0.5615.165 Electron/24.2.0 Safari/537.36" etag="_p7SqEZKGxeSE2J1Whku" version="21.2.8" type="device">
  <diagram name="Page-1" id="2YBvvXClWsGukQMizWep">
    <mxGraphModel dx="1254" dy="735" grid="1" gridSize="10" guides="1" tooltips="1" connect="1" arrows="1" fold="1" page="1" pageScale="1" pageWidth="850" pageHeight="1100" math="0" shadow="0">
      <root>
        <mxCell id="0" />
        <mxCell id="1" parent="0" />
        <mxCell id="OlQx9VZEl4k34NBRUsWb-67" value="&lt;b style=&quot;font-size: 14px;&quot;&gt;&amp;nbsp;&lt;/b&gt;" style="html=1;verticalAlign=bottom;endArrow=block;edgeStyle=elbowEdgeStyle;elbow=vertical;curved=0;rounded=0;fontSize=14;exitX=0.5;exitY=0.902;exitDx=0;exitDy=0;exitPerimeter=0;" edge="1" parent="1" source="aM9ryv3xv72pqoxQDRHE-2" target="OlQx9VZEl4k34NBRUsWb-2">
          <mxGeometry x="-0.1505" y="-30" relative="1" as="geometry">
            <mxPoint x="100" y="480" as="sourcePoint" />
            <Array as="points">
              <mxPoint x="270" y="520" />
              <mxPoint x="400" y="560" />
              <mxPoint x="260" y="500" />
              <mxPoint x="165" y="480" />
              <mxPoint x="435" y="540" />
              <mxPoint x="475" y="400" />
              <mxPoint x="425" y="520" />
              <mxPoint x="525" y="490" />
              <mxPoint x="290" y="440" />
              <mxPoint x="170" y="430" />
            </Array>
            <mxPoint x="1000" y="480" as="targetPoint" />
            <mxPoint as="offset" />
          </mxGeometry>
        </mxCell>
        <mxCell id="OlQx9VZEl4k34NBRUsWb-16" value="&lt;b style=&quot;font-size: 14px;&quot;&gt;&amp;nbsp;&lt;/b&gt;" style="html=1;verticalAlign=bottom;endArrow=block;edgeStyle=elbowEdgeStyle;elbow=vertical;curved=0;rounded=0;fontSize=14;" edge="1" parent="1" source="aM9ryv3xv72pqoxQDRHE-2" target="OlQx9VZEl4k34NBRUsWb-2">
          <mxGeometry x="-0.115" y="10" relative="1" as="geometry">
            <mxPoint x="100" y="400" as="sourcePoint" />
            <Array as="points">
              <mxPoint x="280" y="480" />
              <mxPoint x="170" y="440" />
              <mxPoint x="440" y="500" />
              <mxPoint x="480" y="360" />
              <mxPoint x="430" y="480" />
              <mxPoint x="530" y="450" />
              <mxPoint x="295" y="400" />
              <mxPoint x="175" y="390" />
            </Array>
            <mxPoint x="825" y="400" as="targetPoint" />
            <mxPoint as="offset" />
          </mxGeometry>
        </mxCell>
        <mxCell id="OlQx9VZEl4k34NBRUsWb-44" value="" style="endArrow=none;html=1;rounded=0;endFill=0;startArrow=classic;startFill=1;strokeColor=#009900;strokeWidth=2;fontSize=14;" edge="1" parent="1" source="aM9ryv3xv72pqoxQDRHE-2" target="OlQx9VZEl4k34NBRUsWb-2">
          <mxGeometry width="50" height="50" relative="1" as="geometry">
            <mxPoint x="100" y="230" as="sourcePoint" />
            <mxPoint x="790" y="230" as="targetPoint" />
            <Array as="points">
              <mxPoint x="250" y="240" />
              <mxPoint x="540" y="240" />
            </Array>
          </mxGeometry>
        </mxCell>
        <mxCell id="OlQx9VZEl4k34NBRUsWb-34" value="" style="endArrow=classic;html=1;rounded=0;strokeColor=#009900;strokeWidth=2;fontSize=14;" edge="1" parent="1" source="aM9ryv3xv72pqoxQDRHE-2" target="OlQx9VZEl4k34NBRUsWb-2">
          <mxGeometry width="50" height="50" relative="1" as="geometry">
            <mxPoint x="160" y="210" as="sourcePoint" />
            <mxPoint x="450" y="240" as="targetPoint" />
            <Array as="points">
              <mxPoint x="250" y="200" />
              <mxPoint x="330" y="200" />
            </Array>
          </mxGeometry>
        </mxCell>
        <mxCell id="OlQx9VZEl4k34NBRUsWb-40" value="" style="endArrow=none;html=1;rounded=0;startArrow=classic;startFill=1;endFill=0;strokeWidth=2;strokeColor=#FF3333;fontSize=14;" edge="1" parent="1" source="aM9ryv3xv72pqoxQDRHE-6" target="OlQx9VZEl4k34NBRUsWb-2">
          <mxGeometry width="50" height="50" relative="1" as="geometry">
            <mxPoint x="330" y="320" as="sourcePoint" />
            <mxPoint x="600" y="320" as="targetPoint" />
            <Array as="points">
              <mxPoint x="600" y="320" />
              <mxPoint x="1020" y="320" />
              <mxPoint x="590" y="320" />
            </Array>
          </mxGeometry>
        </mxCell>
        <mxCell id="OlQx9VZEl4k34NBRUsWb-26" value="" style="endArrow=classic;html=1;rounded=0;strokeColor=#00994D;strokeWidth=2;fontSize=14;" edge="1" parent="1" source="aM9ryv3xv72pqoxQDRHE-6" target="OlQx9VZEl4k34NBRUsWb-2">
          <mxGeometry width="50" height="50" relative="1" as="geometry">
            <mxPoint x="400" y="290" as="sourcePoint" />
            <mxPoint x="450" y="240" as="targetPoint" />
            <Array as="points">
              <mxPoint x="490" y="120" />
              <mxPoint x="550" y="120" />
            </Array>
          </mxGeometry>
        </mxCell>
        <mxCell id="OlQx9VZEl4k34NBRUsWb-19" value="" style="endArrow=classic;html=1;rounded=0;strokeColor=#009900;strokeWidth=2;fontSize=14;" edge="1" parent="1" source="OlQx9VZEl4k34NBRUsWb-2" target="aM9ryv3xv72pqoxQDRHE-6">
          <mxGeometry width="50" height="50" relative="1" as="geometry">
            <mxPoint x="830" y="160" as="sourcePoint" />
            <mxPoint x="330" y="160" as="targetPoint" />
            <Array as="points">
              <mxPoint x="440" y="160" />
            </Array>
          </mxGeometry>
        </mxCell>
        <mxCell id="OlQx9VZEl4k34NBRUsWb-21" value="" style="endArrow=classic;html=1;rounded=0;strokeColor=#009900;strokeWidth=2;fontSize=14;" edge="1" parent="1" target="aM9ryv3xv72pqoxQDRHE-2">
          <mxGeometry width="50" height="50" relative="1" as="geometry">
            <mxPoint x="310" y="160" as="sourcePoint" />
            <mxPoint x="450" y="240" as="targetPoint" />
            <Array as="points">
              <mxPoint x="220" y="160" />
            </Array>
          </mxGeometry>
        </mxCell>
        <mxCell id="aM9ryv3xv72pqoxQDRHE-1" value="&lt;b&gt;Node&amp;nbsp;&lt;/b&gt;" style="shape=umlLifeline;perimeter=lifelinePerimeter;whiteSpace=wrap;html=1;container=0;dropTarget=0;collapsible=0;recursiveResize=0;outlineConnect=0;portConstraint=eastwest;newEdgeStyle={&quot;edgeStyle&quot;:&quot;elbowEdgeStyle&quot;,&quot;elbow&quot;:&quot;vertical&quot;,&quot;curved&quot;:0,&quot;rounded&quot;:0};fillColor=#dae8fc;strokeColor=#6c8ebf;" parent="1" vertex="1">
          <mxGeometry x="35" y="40" width="100" height="560" as="geometry" />
        </mxCell>
        <mxCell id="aM9ryv3xv72pqoxQDRHE-2" value="" style="html=1;points=[];perimeter=orthogonalPerimeter;outlineConnect=0;targetShapes=umlLifeline;portConstraint=eastwest;newEdgeStyle={&quot;edgeStyle&quot;:&quot;elbowEdgeStyle&quot;,&quot;elbow&quot;:&quot;vertical&quot;,&quot;curved&quot;:0,&quot;rounded&quot;:0};fillColor=#dae8fc;strokeColor=#6c8ebf;fontSize=14;" parent="aM9ryv3xv72pqoxQDRHE-1" vertex="1">
          <mxGeometry x="45" y="70" width="10" height="450" as="geometry" />
        </mxCell>
        <mxCell id="aM9ryv3xv72pqoxQDRHE-5" value="&lt;b&gt;Gateway&lt;/b&gt;" style="shape=umlLifeline;perimeter=lifelinePerimeter;whiteSpace=wrap;html=1;container=0;dropTarget=0;collapsible=0;recursiveResize=0;outlineConnect=0;portConstraint=eastwest;newEdgeStyle={&quot;edgeStyle&quot;:&quot;elbowEdgeStyle&quot;,&quot;elbow&quot;:&quot;vertical&quot;,&quot;curved&quot;:0,&quot;rounded&quot;:0};fillColor=#fff2cc;strokeColor=#d6b656;" parent="1" vertex="1">
          <mxGeometry x="265" y="40" width="100" height="560" as="geometry" />
        </mxCell>
        <mxCell id="aM9ryv3xv72pqoxQDRHE-6" value="" style="html=1;points=[];perimeter=orthogonalPerimeter;outlineConnect=0;targetShapes=umlLifeline;portConstraint=eastwest;newEdgeStyle={&quot;edgeStyle&quot;:&quot;elbowEdgeStyle&quot;,&quot;elbow&quot;:&quot;vertical&quot;,&quot;curved&quot;:0,&quot;rounded&quot;:0};fillColor=#fff2cc;strokeColor=#d6b656;fontSize=14;" parent="aM9ryv3xv72pqoxQDRHE-5" vertex="1">
          <mxGeometry x="45" y="70" width="10" height="450" as="geometry" />
        </mxCell>
        <mxCell id="OlQx9VZEl4k34NBRUsWb-1" value="&lt;b style=&quot;font-size: 14px;&quot;&gt;Network Server&lt;/b&gt;" style="shape=umlLifeline;perimeter=lifelinePerimeter;whiteSpace=wrap;html=1;container=0;dropTarget=0;collapsible=0;recursiveResize=0;outlineConnect=0;portConstraint=eastwest;newEdgeStyle={&quot;edgeStyle&quot;:&quot;elbowEdgeStyle&quot;,&quot;elbow&quot;:&quot;vertical&quot;,&quot;curved&quot;:0,&quot;rounded&quot;:0};fillColor=#d5e8d4;strokeColor=#82b366;fontSize=14;" vertex="1" parent="1">
          <mxGeometry x="980" y="40" width="100" height="560" as="geometry" />
        </mxCell>
        <mxCell id="OlQx9VZEl4k34NBRUsWb-2" value="" style="html=1;points=[];perimeter=orthogonalPerimeter;outlineConnect=0;targetShapes=umlLifeline;portConstraint=eastwest;newEdgeStyle={&quot;edgeStyle&quot;:&quot;elbowEdgeStyle&quot;,&quot;elbow&quot;:&quot;vertical&quot;,&quot;curved&quot;:0,&quot;rounded&quot;:0};fillColor=#d5e8d4;strokeColor=#82b366;fontSize=14;" vertex="1" parent="OlQx9VZEl4k34NBRUsWb-1">
          <mxGeometry x="45" y="70" width="10" height="450" as="geometry" />
        </mxCell>
        <mxCell id="OlQx9VZEl4k34NBRUsWb-3" value="&lt;b&gt;Malicious Gateway&lt;/b&gt;" style="shape=umlLifeline;perimeter=lifelinePerimeter;whiteSpace=wrap;html=1;container=0;dropTarget=0;collapsible=0;recursiveResize=0;outlineConnect=0;portConstraint=eastwest;newEdgeStyle={&quot;edgeStyle&quot;:&quot;elbowEdgeStyle&quot;,&quot;elbow&quot;:&quot;vertical&quot;,&quot;curved&quot;:0,&quot;rounded&quot;:0};fillColor=#f8cecc;strokeColor=#b85450;dashed=1;dashPattern=8 8;" vertex="1" parent="1">
          <mxGeometry x="560" y="40" width="100" height="560" as="geometry" />
        </mxCell>
        <mxCell id="OlQx9VZEl4k34NBRUsWb-4" value="" style="html=1;points=[];perimeter=orthogonalPerimeter;outlineConnect=0;targetShapes=umlLifeline;portConstraint=eastwest;newEdgeStyle={&quot;edgeStyle&quot;:&quot;elbowEdgeStyle&quot;,&quot;elbow&quot;:&quot;vertical&quot;,&quot;curved&quot;:0,&quot;rounded&quot;:0};dashed=1;fillColor=#f8cecc;strokeColor=#b85450;fontSize=14;" vertex="1" parent="OlQx9VZEl4k34NBRUsWb-3">
          <mxGeometry x="45" y="70" width="10" height="450" as="geometry" />
        </mxCell>
        <mxCell id="aM9ryv3xv72pqoxQDRHE-7" value="" style="html=1;verticalAlign=bottom;endArrow=block;edgeStyle=elbowEdgeStyle;elbow=vertical;curved=0;rounded=0;strokeColor=#00994D;strokeWidth=2;fontSize=14;" parent="1" source="aM9ryv3xv72pqoxQDRHE-2" target="aM9ryv3xv72pqoxQDRHE-6" edge="1">
          <mxGeometry x="-0.6869" y="20" relative="1" as="geometry">
            <mxPoint x="195" y="130" as="sourcePoint" />
            <Array as="points">
              <mxPoint x="270" y="120" />
              <mxPoint x="300" y="130" />
              <mxPoint x="180" y="120" />
            </Array>
            <mxPoint x="630" y="120" as="targetPoint" />
            <mxPoint as="offset" />
          </mxGeometry>
        </mxCell>
        <mxCell id="OlQx9VZEl4k34NBRUsWb-9" value="&lt;b style=&quot;font-size: 14px;&quot;&gt;( Token Y, PULL_ACK )&lt;/b&gt;" style="text;html=1;align=center;verticalAlign=middle;resizable=0;points=[];autosize=1;strokeColor=none;fillColor=none;fontSize=14;" vertex="1" parent="1">
          <mxGeometry x="385" y="285" width="170" height="30" as="geometry" />
        </mxCell>
        <mxCell id="OlQx9VZEl4k34NBRUsWb-17" value="&lt;b style=&quot;font-size: 14px;&quot;&gt;(Token A, PUSH_DATA, Join Request (c))&lt;/b&gt;" style="text;html=1;align=center;verticalAlign=middle;resizable=0;points=[];autosize=1;strokeColor=none;fillColor=none;fontSize=14;" vertex="1" parent="1">
          <mxGeometry x="655" y="450" width="290" height="30" as="geometry" />
        </mxCell>
        <mxCell id="OlQx9VZEl4k34NBRUsWb-18" value="&lt;b style=&quot;font-size: 14px;&quot;&gt;(Token T ,PUSH_DATA ,Join Request (b))&amp;nbsp;&amp;nbsp;&lt;/b&gt;" style="text;html=1;align=center;verticalAlign=middle;resizable=0;points=[];autosize=1;strokeColor=none;fillColor=none;fontSize=14;" vertex="1" parent="1">
          <mxGeometry x="650" y="90" width="300" height="30" as="geometry" />
        </mxCell>
        <mxCell id="OlQx9VZEl4k34NBRUsWb-20" value="&lt;b style=&quot;font-size: 14px;&quot;&gt;(TokenT ,PULL_RESP ,Join Accept (b))&amp;nbsp;&amp;nbsp;&lt;/b&gt;" style="text;html=1;align=center;verticalAlign=middle;resizable=0;points=[];autosize=1;strokeColor=none;fillColor=none;fontSize=14;" vertex="1" parent="1">
          <mxGeometry x="650" y="130" width="290" height="30" as="geometry" />
        </mxCell>
        <mxCell id="OlQx9VZEl4k34NBRUsWb-22" value="&lt;b style=&quot;font-size: 14px;&quot;&gt;Join Accept (b)&lt;/b&gt;" style="text;html=1;align=center;verticalAlign=middle;resizable=0;points=[];autosize=1;strokeColor=none;fillColor=none;fontSize=14;" vertex="1" parent="1">
          <mxGeometry x="140" y="130" width="120" height="30" as="geometry" />
        </mxCell>
        <mxCell id="OlQx9VZEl4k34NBRUsWb-25" value="&lt;b style=&quot;font-size: 14px;&quot;&gt;Join Request (b)&lt;/b&gt;" style="text;html=1;align=center;verticalAlign=middle;resizable=0;points=[];autosize=1;strokeColor=none;fillColor=none;fontSize=14;" vertex="1" parent="1">
          <mxGeometry x="135" y="90" width="130" height="30" as="geometry" />
        </mxCell>
        <mxCell id="OlQx9VZEl4k34NBRUsWb-6" value="&lt;b style=&quot;font-size: 14px;&quot;&gt;(Token Y,PULL_DATA )&amp;nbsp;&amp;nbsp;&lt;/b&gt;" style="text;html=1;align=center;verticalAlign=middle;resizable=0;points=[];autosize=1;strokeColor=none;fillColor=none;fontSize=14;" vertex="1" parent="1">
          <mxGeometry x="695" y="250" width="180" height="30" as="geometry" />
        </mxCell>
        <mxCell id="OlQx9VZEl4k34NBRUsWb-35" value="&lt;b style=&quot;font-size: 14px;&quot;&gt;Uplink rxpk&amp;nbsp;&lt;/b&gt;" style="text;html=1;align=center;verticalAlign=middle;resizable=0;points=[];autosize=1;strokeColor=none;fillColor=none;fontSize=14;" vertex="1" parent="1">
          <mxGeometry x="375" y="170" width="100" height="30" as="geometry" />
        </mxCell>
        <mxCell id="OlQx9VZEl4k34NBRUsWb-43" value="" style="endArrow=classic;html=1;rounded=0;strokeWidth=2;strokeColor=#FF3333;fontSize=14;" edge="1" parent="1" source="OlQx9VZEl4k34NBRUsWb-4" target="OlQx9VZEl4k34NBRUsWb-2">
          <mxGeometry width="50" height="50" relative="1" as="geometry">
            <mxPoint x="530" y="250" as="sourcePoint" />
            <mxPoint x="320" y="280" as="targetPoint" />
            <Array as="points">
              <mxPoint x="620" y="280" />
            </Array>
          </mxGeometry>
        </mxCell>
        <mxCell id="OlQx9VZEl4k34NBRUsWb-45" value="&lt;b style=&quot;font-size: 14px;&quot;&gt;Downlink txpk&lt;/b&gt;" style="text;html=1;align=center;verticalAlign=middle;resizable=0;points=[];autosize=1;strokeColor=none;fillColor=none;fontSize=14;" vertex="1" parent="1">
          <mxGeometry x="365" y="200" width="120" height="30" as="geometry" />
        </mxCell>
        <mxCell id="OlQx9VZEl4k34NBRUsWb-46" value="&lt;b style=&quot;font-size: 14px;&quot;&gt;Join Request(c)&lt;/b&gt;" style="text;html=1;align=center;verticalAlign=middle;resizable=0;points=[];autosize=1;strokeColor=none;fillColor=none;fontSize=14;" vertex="1" parent="1">
          <mxGeometry x="120" y="450" width="130" height="30" as="geometry" />
        </mxCell>
        <mxCell id="OlQx9VZEl4k34NBRUsWb-47" value="&lt;b&gt;&lt;font style=&quot;font-size: 14px;&quot;&gt;1&lt;/font&gt;&lt;/b&gt;" style="text;html=1;align=center;verticalAlign=middle;resizable=0;points=[];autosize=1;strokeColor=none;fillColor=none;" vertex="1" parent="1">
          <mxGeometry x="40" y="110" width="30" height="30" as="geometry" />
        </mxCell>
        <mxCell id="OlQx9VZEl4k34NBRUsWb-48" value="&lt;font style=&quot;font-size: 14px;&quot;&gt;2&lt;/font&gt;" style="text;html=1;align=center;verticalAlign=middle;resizable=0;points=[];autosize=1;strokeColor=none;fillColor=none;fontStyle=1" vertex="1" parent="1">
          <mxGeometry x="40" y="140" width="30" height="30" as="geometry" />
        </mxCell>
        <mxCell id="OlQx9VZEl4k34NBRUsWb-49" value="&lt;font style=&quot;font-size: 14px;&quot;&gt;3&lt;/font&gt;" style="text;html=1;align=center;verticalAlign=middle;resizable=0;points=[];autosize=1;strokeColor=none;fillColor=none;fontStyle=1" vertex="1" parent="1">
          <mxGeometry x="40" y="180" width="30" height="30" as="geometry" />
        </mxCell>
        <mxCell id="OlQx9VZEl4k34NBRUsWb-50" value="&lt;font style=&quot;font-size: 14px;&quot;&gt;4&lt;/font&gt;" style="text;html=1;align=center;verticalAlign=middle;resizable=0;points=[];autosize=1;strokeColor=none;fillColor=none;fontStyle=1" vertex="1" parent="1">
          <mxGeometry x="40" y="210" width="30" height="30" as="geometry" />
        </mxCell>
        <mxCell id="OlQx9VZEl4k34NBRUsWb-51" value="&lt;b&gt;&lt;font style=&quot;font-size: 14px;&quot;&gt;5&lt;/font&gt;&lt;/b&gt;" style="text;html=1;align=center;verticalAlign=middle;resizable=0;points=[];autosize=1;strokeColor=none;fillColor=none;" vertex="1" parent="1">
          <mxGeometry x="40" y="255" width="30" height="30" as="geometry" />
        </mxCell>
        <mxCell id="OlQx9VZEl4k34NBRUsWb-53" value="&lt;b&gt;&lt;font style=&quot;font-size: 14px;&quot;&gt;6&lt;/font&gt;&lt;/b&gt;" style="text;html=1;align=center;verticalAlign=middle;resizable=0;points=[];autosize=1;strokeColor=none;fillColor=none;" vertex="1" parent="1">
          <mxGeometry x="40" y="300" width="30" height="30" as="geometry" />
        </mxCell>
        <mxCell id="OlQx9VZEl4k34NBRUsWb-54" value="&lt;b&gt;&lt;font style=&quot;font-size: 14px;&quot;&gt;7&lt;/font&gt;&lt;/b&gt;" style="text;html=1;align=center;verticalAlign=middle;resizable=0;points=[];autosize=1;strokeColor=none;fillColor=none;" vertex="1" parent="1">
          <mxGeometry x="40" y="340" width="30" height="30" as="geometry" />
        </mxCell>
        <mxCell id="OlQx9VZEl4k34NBRUsWb-55" value="&lt;b&gt;&lt;font style=&quot;font-size: 14px;&quot;&gt;8&lt;/font&gt;&lt;/b&gt;" style="text;html=1;align=center;verticalAlign=middle;resizable=0;points=[];autosize=1;strokeColor=none;fillColor=none;" vertex="1" parent="1">
          <mxGeometry x="40" y="380" width="30" height="30" as="geometry" />
        </mxCell>
        <mxCell id="OlQx9VZEl4k34NBRUsWb-56" value="&lt;b&gt;&lt;font style=&quot;font-size: 14px;&quot;&gt;9&lt;/font&gt;&lt;/b&gt;" style="text;html=1;align=center;verticalAlign=middle;resizable=0;points=[];autosize=1;strokeColor=none;fillColor=none;" vertex="1" parent="1">
          <mxGeometry x="40" y="420" width="30" height="30" as="geometry" />
        </mxCell>
        <mxCell id="OlQx9VZEl4k34NBRUsWb-57" value="&lt;b&gt;&lt;font style=&quot;font-size: 14px;&quot;&gt;10&lt;/font&gt;&lt;br&gt;&lt;/b&gt;" style="text;html=1;align=center;verticalAlign=middle;resizable=0;points=[];autosize=1;strokeColor=none;fillColor=none;" vertex="1" parent="1">
          <mxGeometry x="35" y="460" width="40" height="30" as="geometry" />
        </mxCell>
        <mxCell id="OlQx9VZEl4k34NBRUsWb-69" value="&lt;b style=&quot;font-size: 14px;&quot;&gt;Join Request(d)&lt;/b&gt;" style="text;html=1;align=center;verticalAlign=middle;resizable=0;points=[];autosize=1;strokeColor=none;fillColor=none;fontSize=14;" vertex="1" parent="1">
          <mxGeometry x="120" y="490" width="130" height="30" as="geometry" />
        </mxCell>
        <mxCell id="OlQx9VZEl4k34NBRUsWb-70" value="&lt;b style=&quot;font-size: 14px;&quot;&gt;(Token B, PUSH_DATA, Join Request (d))&lt;/b&gt;" style="text;html=1;align=center;verticalAlign=middle;resizable=0;points=[];autosize=1;strokeColor=none;fillColor=none;fontSize=14;" vertex="1" parent="1">
          <mxGeometry x="650" y="490" width="300" height="30" as="geometry" />
        </mxCell>
        <mxCell id="OlQx9VZEl4k34NBRUsWb-71" value="" style="endArrow=classic;html=1;rounded=0;strokeWidth=2;strokeColor=#FF3333;fontSize=14;" edge="1" parent="1" target="OlQx9VZEl4k34NBRUsWb-2">
          <mxGeometry width="50" height="50" relative="1" as="geometry">
            <mxPoint x="620" y="360" as="sourcePoint" />
            <mxPoint x="1020" y="360" as="targetPoint" />
            <Array as="points">
              <mxPoint x="615" y="360" />
            </Array>
          </mxGeometry>
        </mxCell>
        <mxCell id="OlQx9VZEl4k34NBRUsWb-72" value="&lt;b style=&quot;font-size: 14px;&quot;&gt;(Token Y,PULL_DATA )&amp;nbsp;&amp;nbsp;&lt;/b&gt;" style="text;html=1;align=center;verticalAlign=middle;resizable=0;points=[];autosize=1;strokeColor=none;fillColor=none;fontSize=14;" vertex="1" parent="1">
          <mxGeometry x="695" y="330" width="180" height="30" as="geometry" />
        </mxCell>
        <mxCell id="OlQx9VZEl4k34NBRUsWb-73" value="" style="endArrow=none;html=1;rounded=0;startArrow=classic;startFill=1;endFill=0;strokeWidth=2;strokeColor=#FF3333;fontSize=14;" edge="1" parent="1">
          <mxGeometry width="50" height="50" relative="1" as="geometry">
            <mxPoint x="320" y="400" as="sourcePoint" />
            <mxPoint x="1025" y="400" as="targetPoint" />
            <Array as="points">
              <mxPoint x="600" y="400" />
              <mxPoint x="1020" y="400" />
              <mxPoint x="590" y="400" />
            </Array>
          </mxGeometry>
        </mxCell>
        <mxCell id="OlQx9VZEl4k34NBRUsWb-74" value="&lt;b style=&quot;font-size: 14px;&quot;&gt;( Token Y, PULL_ACK )&lt;/b&gt;" style="text;html=1;align=center;verticalAlign=middle;resizable=0;points=[];autosize=1;strokeColor=none;fillColor=none;fontSize=14;" vertex="1" parent="1">
          <mxGeometry x="380" y="370" width="170" height="30" as="geometry" />
        </mxCell>
        <mxCell id="OlQx9VZEl4k34NBRUsWb-76" value="" style="endArrow=none;dashed=1;html=1;rounded=0;strokeColor=#FF3333;strokeWidth=2;startArrow=classic;startFill=1;" edge="1" parent="1" source="aM9ryv3xv72pqoxQDRHE-2" target="aM9ryv3xv72pqoxQDRHE-6">
          <mxGeometry width="50" height="50" relative="1" as="geometry">
            <mxPoint x="490" y="280" as="sourcePoint" />
            <mxPoint x="540" y="230" as="targetPoint" />
            <Array as="points">
              <mxPoint x="150" y="360" />
            </Array>
          </mxGeometry>
        </mxCell>
        <mxCell id="OlQx9VZEl4k34NBRUsWb-77" value="&lt;font style=&quot;font-size: 14px;&quot;&gt;&lt;b&gt;No Downlink message&lt;/b&gt;&lt;/font&gt;" style="text;html=1;align=center;verticalAlign=middle;resizable=0;points=[];autosize=1;strokeColor=none;fillColor=none;" vertex="1" parent="1">
          <mxGeometry x="110" y="330" width="170" height="30" as="geometry" />
        </mxCell>
        <mxCell id="OlQx9VZEl4k34NBRUsWb-78" value="" style="endArrow=none;dashed=1;html=1;rounded=0;strokeColor=#FF3333;strokeWidth=2;startArrow=classic;startFill=1;" edge="1" parent="1">
          <mxGeometry width="50" height="50" relative="1" as="geometry">
            <mxPoint x="90" y="440" as="sourcePoint" />
            <mxPoint x="310" y="440" as="targetPoint" />
            <Array as="points">
              <mxPoint x="150" y="440" />
            </Array>
          </mxGeometry>
        </mxCell>
        <mxCell id="OlQx9VZEl4k34NBRUsWb-79" value="&lt;font style=&quot;font-size: 14px;&quot;&gt;&lt;b&gt;No Downlink message&lt;/b&gt;&lt;/font&gt;" style="text;html=1;align=center;verticalAlign=middle;resizable=0;points=[];autosize=1;strokeColor=none;fillColor=none;" vertex="1" parent="1">
          <mxGeometry x="110" y="410" width="170" height="30" as="geometry" />
        </mxCell>
        <mxCell id="OlQx9VZEl4k34NBRUsWb-80" value="&lt;b&gt;&lt;font style=&quot;font-size: 14px;&quot;&gt;11&lt;/font&gt;&lt;br&gt;&lt;/b&gt;" style="text;html=1;align=center;verticalAlign=middle;resizable=0;points=[];autosize=1;strokeColor=none;fillColor=none;" vertex="1" parent="1">
          <mxGeometry x="35" y="500" width="40" height="30" as="geometry" />
        </mxCell>
      </root>
    </mxGraphModel>
  </diagram>
</mxfile>
